<?xml version="1.0" standalone="no"?>
<!DOCTYPE svg PUBLIC "-//W3C//DTD SVG 20010904//EN"
 "http://www.w3.org/TR/2001/REC-SVG-20010904/DTD/svg10.dtd">
<svg version="1.0" xmlns="http://www.w3.org/2000/svg"
 width="260.000000pt" height="260.000000pt" viewBox="0 0 260.000000 260.000000"
 preserveAspectRatio="xMidYMid meet">
<metadata>
Created by potrace 1.11, written by Peter Selinger 2001-2013
</metadata>
<g transform="translate(0.000000,260.000000) scale(0.100000,-0.100000)"
fill="#000000" stroke="none">
<path d="M1096 2484 c-253 -46 -458 -153 -642 -338 -234 -233 -354 -521 -354
-846 0 -325 120 -613 354 -846 233 -234 521 -354 846 -354 325 0 613 120 846
354 234 233 354 521 354 846 0 325 -120 613 -354 846 -236 237 -524 356 -855
353 -64 0 -152 -7 -195 -15z m404 -100 c428 -81 759 -392 871 -819 21 -78 24
-113 24 -265 0 -152 -3 -187 -24 -265 -112 -427 -443 -738 -871 -819 -105 -20
-295 -20 -400 0 -428 81 -759 392 -871 819 -21 78 -24 113 -24 265 0 152 3
187 24 265 111 421 428 725 851 815 109 24 308 26 420 4z"/>
<path d="M1559 2288 c-45 -36 -23 -75 56 -103 67 -24 160 -71 215 -108 66 -45
186 -163 236 -234 45 -62 117 -204 130 -256 9 -36 43 -54 74 -37 19 10 22 18
18 54 -3 23 -23 80 -45 128 -113 240 -307 427 -547 527 -96 40 -118 44 -137
29z"/>
<path d="M1500 2120 c-40 -40 -21 -62 87 -104 192 -73 356 -237 429 -429 15
-40 32 -78 37 -84 14 -19 52 -16 72 7 17 19 17 22 -9 94 -81 222 -266 411
-491 503 -94 39 -99 39 -125 13z"/>
<path d="M1453 1959 c-18 -19 -16 -53 5 -71 9 -8 38 -22 64 -32 57 -21 151
-82 197 -127 57 -57 84 -97 131 -192 38 -77 49 -92 71 -95 63 -7 62 50 -3 180
-59 118 -180 238 -298 297 -95 47 -148 59 -167 40z"/>
<path d="M1234 1810 c-120 -18 -220 -69 -302 -154 -199 -206 -193 -527 12
-724 102 -98 216 -144 356 -144 145 0 269 52 368 156 98 102 144 216 144 356
0 140 -46 254 -144 356 -111 116 -281 176 -434 154z m123 -452 c51 -48 15
-138 -56 -138 -47 0 -81 32 -81 79 0 72 84 109 137 59z"/>
<path d="M645 1127 c-14 -21 -14 -28 0 -66 33 -94 81 -167 165 -252 72 -73
101 -94 181 -133 52 -25 105 -46 117 -46 26 0 55 40 46 64 -3 9 -50 37 -103
62 -79 38 -110 60 -174 124 -63 64 -85 94 -119 166 -22 49 -46 92 -52 96 -21
14 -46 8 -61 -15z"/>
<path d="M482 1088 c-19 -19 -14 -58 17 -130 88 -206 265 -380 474 -464 82
-33 111 -34 128 -2 19 35 1 55 -80 87 -202 82 -358 236 -438 433 -14 35 -30
69 -35 76 -13 15 -50 16 -66 0z"/>
<path d="M322 1038 c-6 -6 -12 -23 -12 -37 0 -36 59 -166 116 -258 57 -92 202
-242 293 -303 69 -46 204 -112 263 -128 47 -13 81 7 76 45 -3 29 -4 30 -116
77 -121 50 -185 91 -279 180 -101 95 -160 175 -208 282 -66 145 -68 149 -95
152 -14 2 -31 -3 -38 -10z"/>
</g>
</svg>
